<?xml version="1.0" encoding="UTF-8" standalone="no"?>
<!DOCTYPE svg PUBLIC "-//W3C//DTD SVG 1.1//EN" "http://www.w3.org/Graphics/SVG/1.1/DTD/svg11.dtd">
<svg width="100%" height="100%" viewBox="0 0 951 201" version="1.1" xmlns="http://www.w3.org/2000/svg" xmlns:xlink="http://www.w3.org/1999/xlink" xml:space="preserve" xmlns:serif="http://www.serif.com/" style="fill-rule:evenodd;clip-rule:evenodd;stroke-linejoin:round;stroke-miterlimit:2;">
    <g transform="matrix(1,0,0,1,-3281,-1063)">
        <g id="RD9-simple-white" transform="matrix(0.87963,0,0,0.185185,3281.85,1063.81)">
            <rect x="0" y="0" width="1080" height="1080" style="fill:none;"/>
            <g transform="matrix(0.771668,0,0,3.66542,-126.88,-1409.8)">
                <g transform="matrix(462.091,0,0,462.091,178,644)">
                    <path d="M0.839,-0.485C0.852,-0.485 0.864,-0.483 0.877,-0.478C0.889,-0.472 0.9,-0.466 0.909,-0.457C0.918,-0.448 0.926,-0.436 0.932,-0.423C0.937,-0.41 0.94,-0.395 0.94,-0.379L0.94,-0.296C0.94,-0.267 0.933,-0.244 0.919,-0.227C0.904,-0.21 0.886,-0.198 0.865,-0.193L0.941,-0L0.832,-0L0.747,-0.19L0.157,-0.19L0.157,-0L0.05,-0L0.05,-0.485L0.839,-0.485ZM0.157,-0.379L0.157,-0.296L0.795,-0.296C0.805,-0.296 0.814,-0.298 0.822,-0.303C0.829,-0.307 0.833,-0.316 0.833,-0.329L0.833,-0.34C0.833,-0.354 0.83,-0.364 0.823,-0.37C0.816,-0.376 0.806,-0.379 0.794,-0.379L0.157,-0.379Z" style="fill:white;fill-rule:nonzero;"/>
                </g>
                <g transform="matrix(462.091,0,0,462.091,635.47,644)">
                    <path d="M0.839,-0.485L0.05,-0.485L0.05,-0L0.839,-0C0.852,-0 0.864,-0.002 0.877,-0.007C0.889,-0.012 0.9,-0.019 0.909,-0.028C0.918,-0.037 0.926,-0.048 0.932,-0.061C0.937,-0.074 0.94,-0.089 0.94,-0.106L0.94,-0.379C0.94,-0.395 0.937,-0.41 0.932,-0.423C0.926,-0.436 0.918,-0.448 0.909,-0.457C0.9,-0.466 0.889,-0.472 0.877,-0.478C0.864,-0.483 0.852,-0.485 0.839,-0.485ZM0.795,-0.106L0.157,-0.106L0.157,-0.379L0.796,-0.379C0.808,-0.379 0.817,-0.375 0.824,-0.367C0.83,-0.358 0.833,-0.347 0.833,-0.334L0.833,-0.151C0.833,-0.138 0.829,-0.127 0.822,-0.119C0.814,-0.11 0.805,-0.106 0.795,-0.106Z" style="fill:white;fill-rule:nonzero;"/>
                </g>
                <g transform="matrix(462.091,0,0,462.091,1092.94,644)">
                    <path d="M0.839,-0L0.05,-0L0.05,-0.106L0.796,-0.106C0.809,-0.106 0.819,-0.11 0.825,-0.119C0.83,-0.127 0.833,-0.138 0.833,-0.151L0.833,-0.189L0.15,-0.189C0.123,-0.189 0.1,-0.199 0.08,-0.218C0.06,-0.237 0.05,-0.263 0.05,-0.296L0.05,-0.379C0.05,-0.396 0.053,-0.411 0.059,-0.424C0.064,-0.437 0.072,-0.448 0.081,-0.458C0.09,-0.467 0.101,-0.473 0.113,-0.478C0.125,-0.483 0.138,-0.485 0.151,-0.485L0.839,-0.485C0.852,-0.485 0.864,-0.483 0.877,-0.478C0.889,-0.473 0.9,-0.467 0.909,-0.458C0.918,-0.448 0.926,-0.437 0.932,-0.424C0.937,-0.411 0.94,-0.396 0.94,-0.379L0.94,-0.106C0.94,-0.089 0.937,-0.074 0.932,-0.061C0.926,-0.048 0.918,-0.037 0.909,-0.028C0.9,-0.019 0.889,-0.012 0.877,-0.007C0.864,-0.002 0.852,-0 0.839,-0ZM0.194,-0.295L0.833,-0.295L0.833,-0.334C0.833,-0.347 0.83,-0.358 0.823,-0.367C0.816,-0.375 0.808,-0.379 0.798,-0.379L0.195,-0.379C0.185,-0.379 0.176,-0.375 0.169,-0.367C0.161,-0.358 0.157,-0.347 0.157,-0.334L0.157,-0.326C0.158,-0.315 0.162,-0.307 0.168,-0.302C0.174,-0.297 0.183,-0.295 0.194,-0.295Z" style="fill:white;fill-rule:nonzero;"/>
                </g>
            </g>
        </g>
    </g>
</svg>
